%TF.GenerationSoftware,KiCad,Pcbnew,(5.1.8)-1*%
%TF.CreationDate,2021-07-28T15:43:51+02:00*%
%TF.ProjectId,MotherClock,4d6f7468-6572-4436-9c6f-636b2e6b6963,rev?*%
%TF.SameCoordinates,Original*%
%TF.FileFunction,Soldermask,Bot*%
%TF.FilePolarity,Negative*%
%FSLAX46Y46*%
G04 Gerber Fmt 4.6, Leading zero omitted, Abs format (unit mm)*
G04 Created by KiCad (PCBNEW (5.1.8)-1) date 2021-07-28 15:43:51*
%MOMM*%
%LPD*%
G01*
G04 APERTURE LIST*
%ADD10O,3.960000X1.980000*%
%ADD11R,3.960000X1.980000*%
%ADD12R,1.050000X1.500000*%
%ADD13O,1.050000X1.500000*%
%ADD14R,1.500000X1.500000*%
%ADD15C,1.500000*%
%ADD16O,1.700000X1.700000*%
%ADD17R,1.700000X1.700000*%
%ADD18C,2.400000*%
%ADD19R,2.400000X2.400000*%
%ADD20C,2.000000*%
%ADD21O,1.600000X1.600000*%
%ADD22R,1.600000X1.600000*%
%ADD23C,5.600000*%
%ADD24O,1.905000X2.000000*%
%ADD25R,1.905000X2.000000*%
%ADD26O,1.980000X3.960000*%
%ADD27R,1.980000X3.960000*%
%ADD28O,2.200000X2.200000*%
%ADD29R,2.200000X2.200000*%
%ADD30C,1.800000*%
%ADD31R,1.800000X1.800000*%
%ADD32C,4.000000*%
%ADD33R,4.000000X4.000000*%
%ADD34C,1.600000*%
G04 APERTURE END LIST*
D10*
%TO.C,J4*%
X121158000Y-131144000D03*
D11*
X121158000Y-136144000D03*
%TD*%
D12*
%TO.C,Q9*%
X121158000Y-123952000D03*
D13*
X123698000Y-123952000D03*
X122428000Y-123952000D03*
%TD*%
D14*
%TO.C,Q7*%
X141478000Y-132588000D03*
D15*
X136398000Y-132588000D03*
X138938000Y-132588000D03*
%TD*%
D14*
%TO.C,Q5*%
X152908000Y-132588000D03*
D15*
X147828000Y-132588000D03*
X150368000Y-132588000D03*
%TD*%
D14*
%TO.C,Q8*%
X141732000Y-140970000D03*
D15*
X136652000Y-140970000D03*
X139192000Y-140970000D03*
%TD*%
D14*
%TO.C,Q6*%
X152908000Y-141224000D03*
D15*
X147828000Y-141224000D03*
X150368000Y-141224000D03*
%TD*%
D16*
%TO.C,J3*%
X189992000Y-88138000D03*
X189992000Y-85598000D03*
X189992000Y-83058000D03*
D17*
X189992000Y-80518000D03*
%TD*%
D18*
%TO.C,C4*%
X179204000Y-116078000D03*
D19*
X171704000Y-116078000D03*
%TD*%
D20*
%TO.C,SW3*%
X117348000Y-108966000D03*
X121848000Y-108966000D03*
X117348000Y-115466000D03*
X121848000Y-115466000D03*
%TD*%
%TO.C,SW2*%
X117602000Y-93726000D03*
X122102000Y-93726000D03*
X117602000Y-100226000D03*
X122102000Y-100226000D03*
%TD*%
D21*
%TO.C,SW1*%
X147320000Y-97790000D03*
X154940000Y-92710000D03*
X147320000Y-95250000D03*
X154940000Y-95250000D03*
X147320000Y-92710000D03*
D22*
X154940000Y-97790000D03*
%TD*%
D23*
%TO.C,REF\u002A\u002A*%
X190000000Y-70000000D03*
%TD*%
%TO.C,REF\u002A\u002A*%
X120000000Y-70000000D03*
%TD*%
%TO.C,REF\u002A\u002A*%
X120000000Y-145000000D03*
%TD*%
%TO.C,REF\u002A\u002A*%
X190000000Y-145000000D03*
%TD*%
D24*
%TO.C,U1*%
X153543000Y-114300000D03*
X151003000Y-114300000D03*
D25*
X148463000Y-114300000D03*
%TD*%
D16*
%TO.C,J2*%
X150622000Y-84836000D03*
X150622000Y-82296000D03*
X150622000Y-79756000D03*
X150622000Y-77216000D03*
X150622000Y-74676000D03*
D17*
X150622000Y-72136000D03*
%TD*%
D26*
%TO.C,J1*%
X170260000Y-141859000D03*
X165260000Y-141859000D03*
X175260000Y-141859000D03*
D27*
X180260000Y-141859000D03*
%TD*%
D28*
%TO.C,D6*%
X189992000Y-135890000D03*
D29*
X189992000Y-125730000D03*
%TD*%
D30*
%TO.C,D5*%
X169164000Y-129286000D03*
D31*
X166624000Y-129286000D03*
%TD*%
D28*
%TO.C,D4*%
X129159000Y-146685000D03*
D29*
X129159000Y-136525000D03*
%TD*%
D28*
%TO.C,D3*%
X129286000Y-132080000D03*
D29*
X129286000Y-121920000D03*
%TD*%
D28*
%TO.C,D2*%
X157988000Y-146050000D03*
D29*
X157988000Y-135890000D03*
%TD*%
D28*
%TO.C,D1*%
X157988000Y-132080000D03*
D29*
X157988000Y-121920000D03*
%TD*%
D32*
%TO.C,C3*%
X180467000Y-107569000D03*
D33*
X170467000Y-107569000D03*
%TD*%
D34*
%TO.C,C2*%
X154686000Y-104140000D03*
D22*
X152686000Y-104140000D03*
%TD*%
D34*
%TO.C,C1*%
X147923000Y-104140000D03*
D22*
X145923000Y-104140000D03*
%TD*%
D21*
%TO.C,A1*%
X125222000Y-77216000D03*
X140462000Y-77216000D03*
X125222000Y-112776000D03*
X140462000Y-79756000D03*
X125222000Y-110236000D03*
X140462000Y-82296000D03*
X125222000Y-107696000D03*
X140462000Y-84836000D03*
X125222000Y-105156000D03*
X140462000Y-87376000D03*
X125222000Y-102616000D03*
X140462000Y-89916000D03*
X125222000Y-100076000D03*
X140462000Y-92456000D03*
X125222000Y-97536000D03*
X140462000Y-94996000D03*
X125222000Y-94996000D03*
X140462000Y-97536000D03*
X125222000Y-92456000D03*
X140462000Y-100076000D03*
X125222000Y-89916000D03*
X140462000Y-102616000D03*
X125222000Y-87376000D03*
X140462000Y-105156000D03*
X125222000Y-84836000D03*
X140462000Y-107696000D03*
X125222000Y-82296000D03*
X140462000Y-110236000D03*
X125222000Y-79756000D03*
D22*
X140462000Y-112776000D03*
%TD*%
M02*
