M48
; DRILL file {KiCad (5.1.8)-1} date 07/28/21 15:43:53
; FORMAT={-:-/ absolute / inch / decimal}
; #@! TF.CreationDate,2021-07-28T15:43:53+02:00
; #@! TF.GenerationSoftware,Kicad,Pcbnew,(5.1.8)-1
; #@! TF.FileFunction,Plated,1,2,PTH
FMAT,2
INCH
T1C0.0295
T2C0.0315
T3C0.0354
T4C0.0394
T5C0.0433
T6C0.0472
T7C0.0520
T8C0.0787
T9C0.1260
%
G90
G05
T1
X4.77Y-4.88
X4.82Y-4.88
X4.87Y-4.88
T2
X6.0113Y-4.1
X6.09Y-4.1
X5.8Y-3.65
X5.8Y-3.75
X5.8Y-3.85
X6.1Y-3.65
X6.1Y-3.75
X6.1Y-3.85
X5.38Y-5.55
X5.48Y-5.55
X5.58Y-5.55
X5.82Y-5.56
X5.92Y-5.56
X6.02Y-5.56
X5.745Y-4.1
X5.8237Y-4.1
X5.82Y-5.22
X5.92Y-5.22
X6.02Y-5.22
X5.37Y-5.22
X5.47Y-5.22
X5.57Y-5.22
T3
X6.56Y-5.09
X6.66Y-5.09
T4
X4.64Y-5.04
X4.74Y-3.11
X5.19Y-3.54
X5.25Y-4.95
X5.27Y-3.44
X5.3Y-5.33
X5.3878Y-4.95
X5.73Y-5.29
X5.94Y-4.39
X6.04Y-4.6228
X6.21Y-3.18
X7.48Y-3.17
X7.48Y-3.27
X7.48Y-3.37
X7.48Y-3.47
X5.93Y-2.84
X5.93Y-2.94
X5.93Y-3.04
X5.93Y-3.14
X5.93Y-3.24
X5.93Y-3.34
X4.93Y-3.04
X4.93Y-3.14
X4.93Y-3.24
X4.93Y-3.34
X4.93Y-3.44
X4.93Y-3.54
X4.93Y-3.64
X4.93Y-3.74
X4.93Y-3.84
X4.93Y-3.94
X4.93Y-4.04
X4.93Y-4.14
X4.93Y-4.24
X4.93Y-4.34
X4.93Y-4.44
X5.53Y-3.04
X5.53Y-3.14
X5.53Y-3.24
X5.53Y-3.34
X5.53Y-3.44
X5.53Y-3.54
X5.53Y-3.64
X5.53Y-3.74
X5.53Y-3.84
X5.53Y-3.94
X5.53Y-4.04
X5.53Y-4.14
X5.53Y-4.24
X5.53Y-4.34
X5.53Y-4.44
T5
X6.22Y-4.8
X6.22Y-5.2
X5.09Y-4.8
X5.09Y-5.2
X5.085Y-5.375
X5.085Y-5.775
X5.845Y-4.5
X5.945Y-4.5
X6.045Y-4.5
X4.62Y-4.29
X4.62Y-4.5459
X4.7972Y-4.29
X4.7972Y-4.5459
X4.63Y-3.69
X4.63Y-3.9459
X4.8072Y-3.69
X4.8072Y-3.9459
X7.48Y-4.95
X7.48Y-5.35
X6.22Y-5.35
X6.22Y-5.75
T6
X6.76Y-4.57
X7.0553Y-4.57
T7
X6.5063Y-5.585
X6.7031Y-5.585
X6.9Y-5.585
X7.0969Y-5.585
X4.77Y-5.1631
X4.77Y-5.36
T8
X6.7113Y-4.235
X7.105Y-4.235
T9
X7.4803Y-5.7087
X4.7244Y-5.7087
X4.7244Y-2.7559
X7.4803Y-2.7559
T0
M30
