%TF.GenerationSoftware,KiCad,Pcbnew,(5.1.8)-1*%
%TF.CreationDate,2021-07-28T15:43:50+02:00*%
%TF.ProjectId,MotherClock,4d6f7468-6572-4436-9c6f-636b2e6b6963,rev?*%
%TF.SameCoordinates,Original*%
%TF.FileFunction,Copper,L1,Top*%
%TF.FilePolarity,Positive*%
%FSLAX46Y46*%
G04 Gerber Fmt 4.6, Leading zero omitted, Abs format (unit mm)*
G04 Created by KiCad (PCBNEW (5.1.8)-1) date 2021-07-28 15:43:50*
%MOMM*%
%LPD*%
G01*
G04 APERTURE LIST*
%TA.AperFunction,NonConductor*%
%ADD10C,0.400000*%
%TD*%
%TA.AperFunction,NonConductor*%
%ADD11C,0.150000*%
%TD*%
%TA.AperFunction,ComponentPad*%
%ADD12O,3.960000X1.980000*%
%TD*%
%TA.AperFunction,ComponentPad*%
%ADD13R,3.960000X1.980000*%
%TD*%
%TA.AperFunction,ComponentPad*%
%ADD14R,1.050000X1.500000*%
%TD*%
%TA.AperFunction,ComponentPad*%
%ADD15O,1.050000X1.500000*%
%TD*%
%TA.AperFunction,ComponentPad*%
%ADD16R,1.500000X1.500000*%
%TD*%
%TA.AperFunction,ComponentPad*%
%ADD17C,1.500000*%
%TD*%
%TA.AperFunction,ComponentPad*%
%ADD18O,1.700000X1.700000*%
%TD*%
%TA.AperFunction,ComponentPad*%
%ADD19R,1.700000X1.700000*%
%TD*%
%TA.AperFunction,ComponentPad*%
%ADD20C,2.400000*%
%TD*%
%TA.AperFunction,ComponentPad*%
%ADD21R,2.400000X2.400000*%
%TD*%
%TA.AperFunction,ComponentPad*%
%ADD22C,2.000000*%
%TD*%
%TA.AperFunction,ComponentPad*%
%ADD23O,1.600000X1.600000*%
%TD*%
%TA.AperFunction,ComponentPad*%
%ADD24R,1.600000X1.600000*%
%TD*%
%TA.AperFunction,SMDPad,CuDef*%
%ADD25R,1.800000X2.500000*%
%TD*%
%TA.AperFunction,ComponentPad*%
%ADD26C,5.600000*%
%TD*%
%TA.AperFunction,ComponentPad*%
%ADD27O,1.905000X2.000000*%
%TD*%
%TA.AperFunction,ComponentPad*%
%ADD28R,1.905000X2.000000*%
%TD*%
%TA.AperFunction,SMDPad,CuDef*%
%ADD29R,0.900000X0.800000*%
%TD*%
%TA.AperFunction,ComponentPad*%
%ADD30O,1.980000X3.960000*%
%TD*%
%TA.AperFunction,ComponentPad*%
%ADD31R,1.980000X3.960000*%
%TD*%
%TA.AperFunction,ComponentPad*%
%ADD32O,2.200000X2.200000*%
%TD*%
%TA.AperFunction,ComponentPad*%
%ADD33R,2.200000X2.200000*%
%TD*%
%TA.AperFunction,ComponentPad*%
%ADD34C,1.800000*%
%TD*%
%TA.AperFunction,ComponentPad*%
%ADD35R,1.800000X1.800000*%
%TD*%
%TA.AperFunction,ComponentPad*%
%ADD36C,4.000000*%
%TD*%
%TA.AperFunction,ComponentPad*%
%ADD37R,4.000000X4.000000*%
%TD*%
%TA.AperFunction,ComponentPad*%
%ADD38C,1.600000*%
%TD*%
%TA.AperFunction,ViaPad*%
%ADD39C,1.500000*%
%TD*%
%TA.AperFunction,Conductor*%
%ADD40C,0.500000*%
%TD*%
%TA.AperFunction,Conductor*%
%ADD41C,0.750000*%
%TD*%
%TA.AperFunction,Conductor*%
%ADD42C,1.000000*%
%TD*%
G04 APERTURE END LIST*
D10*
X116878571Y-105521428D02*
X117235714Y-105640476D01*
X117354761Y-105759523D01*
X117473809Y-105997619D01*
X117473809Y-106354761D01*
X117354761Y-106592857D01*
X117235714Y-106711904D01*
X116997619Y-106830952D01*
X116045238Y-106830952D01*
X116045238Y-104330952D01*
X116878571Y-104330952D01*
X117116666Y-104450000D01*
X117235714Y-104569047D01*
X117354761Y-104807142D01*
X117354761Y-105045238D01*
X117235714Y-105283333D01*
X117116666Y-105402380D01*
X116878571Y-105521428D01*
X116045238Y-105521428D01*
X116504761Y-90716666D02*
X117695238Y-90716666D01*
X116266666Y-91430952D02*
X117100000Y-88930952D01*
X117933333Y-91430952D01*
D11*
X137633333Y-146560714D02*
X137823809Y-147227380D01*
X138014285Y-146751190D01*
X138204761Y-147227380D01*
X138395238Y-146560714D01*
X138680952Y-146560714D02*
X138871428Y-147227380D01*
X139061904Y-146751190D01*
X139252380Y-147227380D01*
X139442857Y-146560714D01*
X139728571Y-146560714D02*
X139919047Y-147227380D01*
X140109523Y-146751190D01*
X140300000Y-147227380D01*
X140490476Y-146560714D01*
X140871428Y-147132142D02*
X140919047Y-147179761D01*
X140871428Y-147227380D01*
X140823809Y-147179761D01*
X140871428Y-147132142D01*
X140871428Y-147227380D01*
X141776190Y-147227380D02*
X141776190Y-146227380D01*
X141776190Y-147179761D02*
X141680952Y-147227380D01*
X141490476Y-147227380D01*
X141395238Y-147179761D01*
X141347619Y-147132142D01*
X141300000Y-147036904D01*
X141300000Y-146751190D01*
X141347619Y-146655952D01*
X141395238Y-146608333D01*
X141490476Y-146560714D01*
X141680952Y-146560714D01*
X141776190Y-146608333D01*
X142633333Y-147179761D02*
X142538095Y-147227380D01*
X142347619Y-147227380D01*
X142252380Y-147179761D01*
X142204761Y-147084523D01*
X142204761Y-146703571D01*
X142252380Y-146608333D01*
X142347619Y-146560714D01*
X142538095Y-146560714D01*
X142633333Y-146608333D01*
X142680952Y-146703571D01*
X142680952Y-146798809D01*
X142204761Y-146894047D01*
X143061904Y-147179761D02*
X143157142Y-147227380D01*
X143347619Y-147227380D01*
X143442857Y-147179761D01*
X143490476Y-147084523D01*
X143490476Y-147036904D01*
X143442857Y-146941666D01*
X143347619Y-146894047D01*
X143204761Y-146894047D01*
X143109523Y-146846428D01*
X143061904Y-146751190D01*
X143061904Y-146703571D01*
X143109523Y-146608333D01*
X143204761Y-146560714D01*
X143347619Y-146560714D01*
X143442857Y-146608333D01*
X143919047Y-147227380D02*
X143919047Y-146560714D01*
X143919047Y-146227380D02*
X143871428Y-146275000D01*
X143919047Y-146322619D01*
X143966666Y-146275000D01*
X143919047Y-146227380D01*
X143919047Y-146322619D01*
X144823809Y-146560714D02*
X144823809Y-147370238D01*
X144776190Y-147465476D01*
X144728571Y-147513095D01*
X144633333Y-147560714D01*
X144490476Y-147560714D01*
X144395238Y-147513095D01*
X144823809Y-147179761D02*
X144728571Y-147227380D01*
X144538095Y-147227380D01*
X144442857Y-147179761D01*
X144395238Y-147132142D01*
X144347619Y-147036904D01*
X144347619Y-146751190D01*
X144395238Y-146655952D01*
X144442857Y-146608333D01*
X144538095Y-146560714D01*
X144728571Y-146560714D01*
X144823809Y-146608333D01*
X145300000Y-146560714D02*
X145300000Y-147227380D01*
X145300000Y-146655952D02*
X145347619Y-146608333D01*
X145442857Y-146560714D01*
X145585714Y-146560714D01*
X145680952Y-146608333D01*
X145728571Y-146703571D01*
X145728571Y-147227380D01*
X146585714Y-147179761D02*
X146490476Y-147227380D01*
X146300000Y-147227380D01*
X146204761Y-147179761D01*
X146157142Y-147084523D01*
X146157142Y-146703571D01*
X146204761Y-146608333D01*
X146300000Y-146560714D01*
X146490476Y-146560714D01*
X146585714Y-146608333D01*
X146633333Y-146703571D01*
X146633333Y-146798809D01*
X146157142Y-146894047D01*
X147061904Y-147227380D02*
X147061904Y-146560714D01*
X147061904Y-146751190D02*
X147109523Y-146655952D01*
X147157142Y-146608333D01*
X147252380Y-146560714D01*
X147347619Y-146560714D01*
X147633333Y-146322619D02*
X147680952Y-146275000D01*
X147776190Y-146227380D01*
X148014285Y-146227380D01*
X148109523Y-146275000D01*
X148157142Y-146322619D01*
X148204761Y-146417857D01*
X148204761Y-146513095D01*
X148157142Y-146655952D01*
X147585714Y-147227380D01*
X148204761Y-147227380D01*
X148633333Y-147227380D02*
X148633333Y-146227380D01*
X148728571Y-146846428D02*
X149014285Y-147227380D01*
X149014285Y-146560714D02*
X148633333Y-146941666D01*
X149395238Y-146322619D02*
X149442857Y-146275000D01*
X149538095Y-146227380D01*
X149776190Y-146227380D01*
X149871428Y-146275000D01*
X149919047Y-146322619D01*
X149966666Y-146417857D01*
X149966666Y-146513095D01*
X149919047Y-146655952D01*
X149347619Y-147227380D01*
X149966666Y-147227380D01*
X150395238Y-147132142D02*
X150442857Y-147179761D01*
X150395238Y-147227380D01*
X150347619Y-147179761D01*
X150395238Y-147132142D01*
X150395238Y-147227380D01*
X151300000Y-147227380D02*
X151300000Y-146703571D01*
X151252380Y-146608333D01*
X151157142Y-146560714D01*
X150966666Y-146560714D01*
X150871428Y-146608333D01*
X151300000Y-147179761D02*
X151204761Y-147227380D01*
X150966666Y-147227380D01*
X150871428Y-147179761D01*
X150823809Y-147084523D01*
X150823809Y-146989285D01*
X150871428Y-146894047D01*
X150966666Y-146846428D01*
X151204761Y-146846428D01*
X151300000Y-146798809D01*
X151633333Y-146560714D02*
X152014285Y-146560714D01*
X151776190Y-146227380D02*
X151776190Y-147084523D01*
X151823809Y-147179761D01*
X151919047Y-147227380D01*
X152014285Y-147227380D01*
%TO.P,R14,2*%
%TO.N,GND*%
%TA.AperFunction,SMDPad,CuDef*%
G36*
G01*
X117230999Y-125675500D02*
X118481001Y-125675500D01*
G75*
G02*
X118731000Y-125925499I0J-249999D01*
G01*
X118731000Y-126550501D01*
G75*
G02*
X118481001Y-126800500I-249999J0D01*
G01*
X117230999Y-126800500D01*
G75*
G02*
X116981000Y-126550501I0J249999D01*
G01*
X116981000Y-125925499D01*
G75*
G02*
X117230999Y-125675500I249999J0D01*
G01*
G37*
%TD.AperFunction*%
%TO.P,R14,1*%
%TO.N,Net-(Q9-Pad2)*%
%TA.AperFunction,SMDPad,CuDef*%
G36*
G01*
X117230999Y-122750500D02*
X118481001Y-122750500D01*
G75*
G02*
X118731000Y-123000499I0J-249999D01*
G01*
X118731000Y-123625501D01*
G75*
G02*
X118481001Y-123875500I-249999J0D01*
G01*
X117230999Y-123875500D01*
G75*
G02*
X116981000Y-123625501I0J249999D01*
G01*
X116981000Y-123000499D01*
G75*
G02*
X117230999Y-122750500I249999J0D01*
G01*
G37*
%TD.AperFunction*%
%TD*%
D12*
%TO.P,J4,2*%
%TO.N,Net-(J4-Pad2)*%
X121158000Y-131144000D03*
D13*
%TO.P,J4,1*%
%TO.N,+24V*%
X121158000Y-136144000D03*
%TD*%
%TO.P,R13,2*%
%TO.N,Net-(A1-Pad26)*%
%TA.AperFunction,SMDPad,CuDef*%
G36*
G01*
X120341500Y-120005001D02*
X120341500Y-118754999D01*
G75*
G02*
X120591499Y-118505000I249999J0D01*
G01*
X121216501Y-118505000D01*
G75*
G02*
X121466500Y-118754999I0J-249999D01*
G01*
X121466500Y-120005001D01*
G75*
G02*
X121216501Y-120255000I-249999J0D01*
G01*
X120591499Y-120255000D01*
G75*
G02*
X120341500Y-120005001I0J249999D01*
G01*
G37*
%TD.AperFunction*%
%TO.P,R13,1*%
%TO.N,Net-(Q9-Pad2)*%
%TA.AperFunction,SMDPad,CuDef*%
G36*
G01*
X117416500Y-120005001D02*
X117416500Y-118754999D01*
G75*
G02*
X117666499Y-118505000I249999J0D01*
G01*
X118291501Y-118505000D01*
G75*
G02*
X118541500Y-118754999I0J-249999D01*
G01*
X118541500Y-120005001D01*
G75*
G02*
X118291501Y-120255000I-249999J0D01*
G01*
X117666499Y-120255000D01*
G75*
G02*
X117416500Y-120005001I0J249999D01*
G01*
G37*
%TD.AperFunction*%
%TD*%
D14*
%TO.P,Q9,1*%
%TO.N,Net-(J4-Pad2)*%
X121158000Y-123952000D03*
D15*
%TO.P,Q9,3*%
%TO.N,GND*%
X123698000Y-123952000D03*
%TO.P,Q9,2*%
%TO.N,Net-(Q9-Pad2)*%
X122428000Y-123952000D03*
%TD*%
D16*
%TO.P,Q7,1*%
%TO.N,Net-(D10-Pad1)*%
X141478000Y-132588000D03*
D17*
%TO.P,Q7,3*%
%TO.N,+24V*%
X136398000Y-132588000D03*
%TO.P,Q7,2*%
%TO.N,Net-(Q3-Pad1)*%
X138938000Y-132588000D03*
%TD*%
D16*
%TO.P,Q5,1*%
%TO.N,Net-(D1-Pad2)*%
X152908000Y-132588000D03*
D17*
%TO.P,Q5,3*%
%TO.N,+24V*%
X147828000Y-132588000D03*
%TO.P,Q5,2*%
%TO.N,Net-(Q1-Pad1)*%
X150368000Y-132588000D03*
%TD*%
D16*
%TO.P,Q8,1*%
%TO.N,Net-(D10-Pad1)*%
X141732000Y-140970000D03*
D17*
%TO.P,Q8,3*%
%TO.N,GND*%
X136652000Y-140970000D03*
%TO.P,Q8,2*%
%TO.N,Net-(Q4-Pad1)*%
X139192000Y-140970000D03*
%TD*%
D16*
%TO.P,Q6,1*%
%TO.N,Net-(D1-Pad2)*%
X152908000Y-141224000D03*
D17*
%TO.P,Q6,3*%
%TO.N,GND*%
X147828000Y-141224000D03*
%TO.P,Q6,2*%
%TO.N,Net-(Q2-Pad1)*%
X150368000Y-141224000D03*
%TD*%
%TO.P,C7,2*%
%TO.N,GND*%
%TA.AperFunction,SMDPad,CuDef*%
G36*
G01*
X186723000Y-87252000D02*
X187673000Y-87252000D01*
G75*
G02*
X187923000Y-87502000I0J-250000D01*
G01*
X187923000Y-88002000D01*
G75*
G02*
X187673000Y-88252000I-250000J0D01*
G01*
X186723000Y-88252000D01*
G75*
G02*
X186473000Y-88002000I0J250000D01*
G01*
X186473000Y-87502000D01*
G75*
G02*
X186723000Y-87252000I250000J0D01*
G01*
G37*
%TD.AperFunction*%
%TO.P,C7,1*%
%TO.N,+5V*%
%TA.AperFunction,SMDPad,CuDef*%
G36*
G01*
X186723000Y-85352000D02*
X187673000Y-85352000D01*
G75*
G02*
X187923000Y-85602000I0J-250000D01*
G01*
X187923000Y-86102000D01*
G75*
G02*
X187673000Y-86352000I-250000J0D01*
G01*
X186723000Y-86352000D01*
G75*
G02*
X186473000Y-86102000I0J250000D01*
G01*
X186473000Y-85602000D01*
G75*
G02*
X186723000Y-85352000I250000J0D01*
G01*
G37*
%TD.AperFunction*%
%TD*%
%TO.P,C6,2*%
%TO.N,GND*%
%TA.AperFunction,SMDPad,CuDef*%
G36*
G01*
X146845000Y-83950000D02*
X147795000Y-83950000D01*
G75*
G02*
X148045000Y-84200000I0J-250000D01*
G01*
X148045000Y-84700000D01*
G75*
G02*
X147795000Y-84950000I-250000J0D01*
G01*
X146845000Y-84950000D01*
G75*
G02*
X146595000Y-84700000I0J250000D01*
G01*
X146595000Y-84200000D01*
G75*
G02*
X146845000Y-83950000I250000J0D01*
G01*
G37*
%TD.AperFunction*%
%TO.P,C6,1*%
%TO.N,+5V*%
%TA.AperFunction,SMDPad,CuDef*%
G36*
G01*
X146845000Y-82050000D02*
X147795000Y-82050000D01*
G75*
G02*
X148045000Y-82300000I0J-250000D01*
G01*
X148045000Y-82800000D01*
G75*
G02*
X147795000Y-83050000I-250000J0D01*
G01*
X146845000Y-83050000D01*
G75*
G02*
X146595000Y-82800000I0J250000D01*
G01*
X146595000Y-82300000D01*
G75*
G02*
X146845000Y-82050000I250000J0D01*
G01*
G37*
%TD.AperFunction*%
%TD*%
%TO.P,C5,2*%
%TO.N,GND*%
%TA.AperFunction,SMDPad,CuDef*%
G36*
G01*
X127541000Y-108146000D02*
X128491000Y-108146000D01*
G75*
G02*
X128741000Y-108396000I0J-250000D01*
G01*
X128741000Y-108896000D01*
G75*
G02*
X128491000Y-109146000I-250000J0D01*
G01*
X127541000Y-109146000D01*
G75*
G02*
X127291000Y-108896000I0J250000D01*
G01*
X127291000Y-108396000D01*
G75*
G02*
X127541000Y-108146000I250000J0D01*
G01*
G37*
%TD.AperFunction*%
%TO.P,C5,1*%
%TO.N,+5V*%
%TA.AperFunction,SMDPad,CuDef*%
G36*
G01*
X127541000Y-106246000D02*
X128491000Y-106246000D01*
G75*
G02*
X128741000Y-106496000I0J-250000D01*
G01*
X128741000Y-106996000D01*
G75*
G02*
X128491000Y-107246000I-250000J0D01*
G01*
X127541000Y-107246000D01*
G75*
G02*
X127291000Y-106996000I0J250000D01*
G01*
X127291000Y-106496000D01*
G75*
G02*
X127541000Y-106246000I250000J0D01*
G01*
G37*
%TD.AperFunction*%
%TD*%
D18*
%TO.P,J3,4*%
%TO.N,GND*%
X189992000Y-88138000D03*
%TO.P,J3,3*%
%TO.N,+5V*%
X189992000Y-85598000D03*
%TO.P,J3,2*%
%TO.N,Net-(A1-Pad24)*%
X189992000Y-83058000D03*
D19*
%TO.P,J3,1*%
%TO.N,Net-(A1-Pad23)*%
X189992000Y-80518000D03*
%TD*%
D20*
%TO.P,C4,2*%
%TO.N,GND*%
X179204000Y-116078000D03*
D21*
%TO.P,C4,1*%
%TO.N,Net-(C1-Pad1)*%
X171704000Y-116078000D03*
%TD*%
D22*
%TO.P,SW3,1*%
%TO.N,GND*%
X117348000Y-108966000D03*
%TO.P,SW3,2*%
%TO.N,Net-(A1-Pad11)*%
X121848000Y-108966000D03*
%TO.P,SW3,1*%
%TO.N,GND*%
X117348000Y-115466000D03*
%TO.P,SW3,2*%
%TO.N,Net-(A1-Pad11)*%
X121848000Y-115466000D03*
%TD*%
%TO.P,SW2,1*%
%TO.N,GND*%
X117602000Y-93726000D03*
%TO.P,SW2,2*%
%TO.N,Net-(A1-Pad10)*%
X122102000Y-93726000D03*
%TO.P,SW2,1*%
%TO.N,GND*%
X117602000Y-100226000D03*
%TO.P,SW2,2*%
%TO.N,Net-(A1-Pad10)*%
X122102000Y-100226000D03*
%TD*%
D23*
%TO.P,SW1,6*%
%TO.N,Net-(A1-Pad7)*%
X147320000Y-97790000D03*
%TO.P,SW1,3*%
%TO.N,GND*%
X154940000Y-92710000D03*
%TO.P,SW1,5*%
%TO.N,Net-(A1-Pad8)*%
X147320000Y-95250000D03*
%TO.P,SW1,2*%
%TO.N,GND*%
X154940000Y-95250000D03*
%TO.P,SW1,4*%
%TO.N,Net-(A1-Pad9)*%
X147320000Y-92710000D03*
D24*
%TO.P,SW1,1*%
%TO.N,GND*%
X154940000Y-97790000D03*
%TD*%
D25*
%TO.P,D11,2*%
%TO.N,Net-(D11-Pad2)*%
X189992000Y-132969000D03*
%TO.P,D11,1*%
%TO.N,Net-(C1-Pad1)*%
X189992000Y-128969000D03*
%TD*%
%TO.P,D10,2*%
%TO.N,GND*%
X129286000Y-143700000D03*
%TO.P,D10,1*%
%TO.N,Net-(D10-Pad1)*%
X129286000Y-139700000D03*
%TD*%
%TO.P,D9,2*%
%TO.N,Net-(D10-Pad1)*%
X129286000Y-129032000D03*
%TO.P,D9,1*%
%TO.N,+24V*%
X129286000Y-125032000D03*
%TD*%
%TO.P,D8,2*%
%TO.N,GND*%
X157988000Y-142970000D03*
%TO.P,D8,1*%
%TO.N,Net-(D1-Pad2)*%
X157988000Y-138970000D03*
%TD*%
%TO.P,D7,2*%
%TO.N,Net-(D1-Pad2)*%
X157988000Y-129095000D03*
%TO.P,D7,1*%
%TO.N,+24V*%
X157988000Y-125095000D03*
%TD*%
D26*
%TO.P,REF\u002A\u002A,1*%
%TO.N,N/C*%
X190000000Y-70000000D03*
%TD*%
%TO.P,REF\u002A\u002A,1*%
%TO.N,N/C*%
X120000000Y-70000000D03*
%TD*%
%TO.P,REF\u002A\u002A,1*%
%TO.N,N/C*%
X120000000Y-145000000D03*
%TD*%
%TO.P,REF\u002A\u002A,1*%
%TO.N,N/C*%
X190000000Y-145000000D03*
%TD*%
D27*
%TO.P,U1,3*%
%TO.N,+5V*%
X153543000Y-114300000D03*
%TO.P,U1,2*%
%TO.N,GND*%
X151003000Y-114300000D03*
D28*
%TO.P,U1,1*%
%TO.N,Net-(C1-Pad1)*%
X148463000Y-114300000D03*
%TD*%
%TO.P,R12,2*%
%TO.N,GND*%
%TA.AperFunction,SMDPad,CuDef*%
G36*
G01*
X121148002Y-81523000D02*
X119897998Y-81523000D01*
G75*
G02*
X119648000Y-81273002I0J249998D01*
G01*
X119648000Y-80647998D01*
G75*
G02*
X119897998Y-80398000I249998J0D01*
G01*
X121148002Y-80398000D01*
G75*
G02*
X121398000Y-80647998I0J-249998D01*
G01*
X121398000Y-81273002D01*
G75*
G02*
X121148002Y-81523000I-249998J0D01*
G01*
G37*
%TD.AperFunction*%
%TO.P,R12,1*%
%TO.N,Net-(A1-Pad19)*%
%TA.AperFunction,SMDPad,CuDef*%
G36*
G01*
X121148002Y-84448000D02*
X119897998Y-84448000D01*
G75*
G02*
X119648000Y-84198002I0J249998D01*
G01*
X119648000Y-83572998D01*
G75*
G02*
X119897998Y-83323000I249998J0D01*
G01*
X121148002Y-83323000D01*
G75*
G02*
X121398000Y-83572998I0J-249998D01*
G01*
X121398000Y-84198002D01*
G75*
G02*
X121148002Y-84448000I-249998J0D01*
G01*
G37*
%TD.AperFunction*%
%TD*%
%TO.P,R11,2*%
%TO.N,Net-(A1-Pad19)*%
%TA.AperFunction,SMDPad,CuDef*%
G36*
G01*
X121148002Y-87746000D02*
X119897998Y-87746000D01*
G75*
G02*
X119648000Y-87496002I0J249998D01*
G01*
X119648000Y-86870998D01*
G75*
G02*
X119897998Y-86621000I249998J0D01*
G01*
X121148002Y-86621000D01*
G75*
G02*
X121398000Y-86870998I0J-249998D01*
G01*
X121398000Y-87496002D01*
G75*
G02*
X121148002Y-87746000I-249998J0D01*
G01*
G37*
%TD.AperFunction*%
%TO.P,R11,1*%
%TO.N,+24V*%
%TA.AperFunction,SMDPad,CuDef*%
G36*
G01*
X121148002Y-90671000D02*
X119897998Y-90671000D01*
G75*
G02*
X119648000Y-90421002I0J249998D01*
G01*
X119648000Y-89795998D01*
G75*
G02*
X119897998Y-89546000I249998J0D01*
G01*
X121148002Y-89546000D01*
G75*
G02*
X121398000Y-89795998I0J-249998D01*
G01*
X121398000Y-90421002D01*
G75*
G02*
X121148002Y-90671000I-249998J0D01*
G01*
G37*
%TD.AperFunction*%
%TD*%
%TO.P,R10,2*%
%TO.N,Net-(D5-Pad1)*%
%TA.AperFunction,SMDPad,CuDef*%
G36*
G01*
X163185002Y-128197500D02*
X161934998Y-128197500D01*
G75*
G02*
X161685000Y-127947502I0J249998D01*
G01*
X161685000Y-127322498D01*
G75*
G02*
X161934998Y-127072500I249998J0D01*
G01*
X163185002Y-127072500D01*
G75*
G02*
X163435000Y-127322498I0J-249998D01*
G01*
X163435000Y-127947502D01*
G75*
G02*
X163185002Y-128197500I-249998J0D01*
G01*
G37*
%TD.AperFunction*%
%TO.P,R10,1*%
%TO.N,Net-(D1-Pad2)*%
%TA.AperFunction,SMDPad,CuDef*%
G36*
G01*
X163185002Y-131122500D02*
X161934998Y-131122500D01*
G75*
G02*
X161685000Y-130872502I0J249998D01*
G01*
X161685000Y-130247498D01*
G75*
G02*
X161934998Y-129997500I249998J0D01*
G01*
X163185002Y-129997500D01*
G75*
G02*
X163435000Y-130247498I0J-249998D01*
G01*
X163435000Y-130872502D01*
G75*
G02*
X163185002Y-131122500I-249998J0D01*
G01*
G37*
%TD.AperFunction*%
%TD*%
%TO.P,R9,2*%
%TO.N,GND*%
%TA.AperFunction,SMDPad,CuDef*%
G36*
G01*
X133867998Y-139522500D02*
X135118002Y-139522500D01*
G75*
G02*
X135368000Y-139772498I0J-249998D01*
G01*
X135368000Y-140397502D01*
G75*
G02*
X135118002Y-140647500I-249998J0D01*
G01*
X133867998Y-140647500D01*
G75*
G02*
X133618000Y-140397502I0J249998D01*
G01*
X133618000Y-139772498D01*
G75*
G02*
X133867998Y-139522500I249998J0D01*
G01*
G37*
%TD.AperFunction*%
%TO.P,R9,1*%
%TO.N,Net-(Q4-Pad1)*%
%TA.AperFunction,SMDPad,CuDef*%
G36*
G01*
X133867998Y-136597500D02*
X135118002Y-136597500D01*
G75*
G02*
X135368000Y-136847498I0J-249998D01*
G01*
X135368000Y-137472502D01*
G75*
G02*
X135118002Y-137722500I-249998J0D01*
G01*
X133867998Y-137722500D01*
G75*
G02*
X133618000Y-137472502I0J249998D01*
G01*
X133618000Y-136847498D01*
G75*
G02*
X133867998Y-136597500I249998J0D01*
G01*
G37*
%TD.AperFunction*%
%TD*%
%TO.P,R8,2*%
%TO.N,+24V*%
%TA.AperFunction,SMDPad,CuDef*%
G36*
G01*
X174634998Y-129993500D02*
X175885002Y-129993500D01*
G75*
G02*
X176135000Y-130243498I0J-249998D01*
G01*
X176135000Y-130868502D01*
G75*
G02*
X175885002Y-131118500I-249998J0D01*
G01*
X174634998Y-131118500D01*
G75*
G02*
X174385000Y-130868502I0J249998D01*
G01*
X174385000Y-130243498D01*
G75*
G02*
X174634998Y-129993500I249998J0D01*
G01*
G37*
%TD.AperFunction*%
%TO.P,R8,1*%
%TO.N,Net-(D11-Pad2)*%
%TA.AperFunction,SMDPad,CuDef*%
G36*
G01*
X174634998Y-127068500D02*
X175885002Y-127068500D01*
G75*
G02*
X176135000Y-127318498I0J-249998D01*
G01*
X176135000Y-127943502D01*
G75*
G02*
X175885002Y-128193500I-249998J0D01*
G01*
X174634998Y-128193500D01*
G75*
G02*
X174385000Y-127943502I0J249998D01*
G01*
X174385000Y-127318498D01*
G75*
G02*
X174634998Y-127068500I249998J0D01*
G01*
G37*
%TD.AperFunction*%
%TD*%
%TO.P,R7,2*%
%TO.N,Net-(D1-Pad2)*%
%TA.AperFunction,SMDPad,CuDef*%
G36*
G01*
X150504998Y-124282500D02*
X151755002Y-124282500D01*
G75*
G02*
X152005000Y-124532498I0J-249998D01*
G01*
X152005000Y-125157502D01*
G75*
G02*
X151755002Y-125407500I-249998J0D01*
G01*
X150504998Y-125407500D01*
G75*
G02*
X150255000Y-125157502I0J249998D01*
G01*
X150255000Y-124532498D01*
G75*
G02*
X150504998Y-124282500I249998J0D01*
G01*
G37*
%TD.AperFunction*%
%TO.P,R7,1*%
%TO.N,Net-(Q3-Pad1)*%
%TA.AperFunction,SMDPad,CuDef*%
G36*
G01*
X150504998Y-121357500D02*
X151755002Y-121357500D01*
G75*
G02*
X152005000Y-121607498I0J-249998D01*
G01*
X152005000Y-122232502D01*
G75*
G02*
X151755002Y-122482500I-249998J0D01*
G01*
X150504998Y-122482500D01*
G75*
G02*
X150255000Y-122232502I0J249998D01*
G01*
X150255000Y-121607498D01*
G75*
G02*
X150504998Y-121357500I249998J0D01*
G01*
G37*
%TD.AperFunction*%
%TD*%
%TO.P,R6,2*%
%TO.N,Net-(Q3-Pad1)*%
%TA.AperFunction,SMDPad,CuDef*%
G36*
G01*
X135118002Y-129148000D02*
X133867998Y-129148000D01*
G75*
G02*
X133618000Y-128898002I0J249998D01*
G01*
X133618000Y-128272998D01*
G75*
G02*
X133867998Y-128023000I249998J0D01*
G01*
X135118002Y-128023000D01*
G75*
G02*
X135368000Y-128272998I0J-249998D01*
G01*
X135368000Y-128898002D01*
G75*
G02*
X135118002Y-129148000I-249998J0D01*
G01*
G37*
%TD.AperFunction*%
%TO.P,R6,1*%
%TO.N,+24V*%
%TA.AperFunction,SMDPad,CuDef*%
G36*
G01*
X135118002Y-132073000D02*
X133867998Y-132073000D01*
G75*
G02*
X133618000Y-131823002I0J249998D01*
G01*
X133618000Y-131197998D01*
G75*
G02*
X133867998Y-130948000I249998J0D01*
G01*
X135118002Y-130948000D01*
G75*
G02*
X135368000Y-131197998I0J-249998D01*
G01*
X135368000Y-131823002D01*
G75*
G02*
X135118002Y-132073000I-249998J0D01*
G01*
G37*
%TD.AperFunction*%
%TD*%
%TO.P,R5,2*%
%TO.N,Net-(A1-Pad12)*%
%TA.AperFunction,SMDPad,CuDef*%
G36*
G01*
X136851500Y-121529002D02*
X136851500Y-120278998D01*
G75*
G02*
X137101498Y-120029000I249998J0D01*
G01*
X137726502Y-120029000D01*
G75*
G02*
X137976500Y-120278998I0J-249998D01*
G01*
X137976500Y-121529002D01*
G75*
G02*
X137726502Y-121779000I-249998J0D01*
G01*
X137101498Y-121779000D01*
G75*
G02*
X136851500Y-121529002I0J249998D01*
G01*
G37*
%TD.AperFunction*%
%TO.P,R5,1*%
%TO.N,Net-(Q4-Pad1)*%
%TA.AperFunction,SMDPad,CuDef*%
G36*
G01*
X133926500Y-121529002D02*
X133926500Y-120278998D01*
G75*
G02*
X134176498Y-120029000I249998J0D01*
G01*
X134801502Y-120029000D01*
G75*
G02*
X135051500Y-120278998I0J-249998D01*
G01*
X135051500Y-121529002D01*
G75*
G02*
X134801502Y-121779000I-249998J0D01*
G01*
X134176498Y-121779000D01*
G75*
G02*
X133926500Y-121529002I0J249998D01*
G01*
G37*
%TD.AperFunction*%
%TD*%
%TO.P,R4,2*%
%TO.N,Net-(A1-Pad13)*%
%TA.AperFunction,SMDPad,CuDef*%
G36*
G01*
X136851500Y-118989002D02*
X136851500Y-117738998D01*
G75*
G02*
X137101498Y-117489000I249998J0D01*
G01*
X137726502Y-117489000D01*
G75*
G02*
X137976500Y-117738998I0J-249998D01*
G01*
X137976500Y-118989002D01*
G75*
G02*
X137726502Y-119239000I-249998J0D01*
G01*
X137101498Y-119239000D01*
G75*
G02*
X136851500Y-118989002I0J249998D01*
G01*
G37*
%TD.AperFunction*%
%TO.P,R4,1*%
%TO.N,Net-(Q2-Pad1)*%
%TA.AperFunction,SMDPad,CuDef*%
G36*
G01*
X133926500Y-118989002D02*
X133926500Y-117738998D01*
G75*
G02*
X134176498Y-117489000I249998J0D01*
G01*
X134801502Y-117489000D01*
G75*
G02*
X135051500Y-117738998I0J-249998D01*
G01*
X135051500Y-118989002D01*
G75*
G02*
X134801502Y-119239000I-249998J0D01*
G01*
X134176498Y-119239000D01*
G75*
G02*
X133926500Y-118989002I0J249998D01*
G01*
G37*
%TD.AperFunction*%
%TD*%
%TO.P,R3,2*%
%TO.N,Net-(D10-Pad1)*%
%TA.AperFunction,SMDPad,CuDef*%
G36*
G01*
X141786500Y-123834998D02*
X141786500Y-125085002D01*
G75*
G02*
X141536502Y-125335000I-249998J0D01*
G01*
X140911498Y-125335000D01*
G75*
G02*
X140661500Y-125085002I0J249998D01*
G01*
X140661500Y-123834998D01*
G75*
G02*
X140911498Y-123585000I249998J0D01*
G01*
X141536502Y-123585000D01*
G75*
G02*
X141786500Y-123834998I0J-249998D01*
G01*
G37*
%TD.AperFunction*%
%TO.P,R3,1*%
%TO.N,Net-(Q1-Pad1)*%
%TA.AperFunction,SMDPad,CuDef*%
G36*
G01*
X144711500Y-123834998D02*
X144711500Y-125085002D01*
G75*
G02*
X144461502Y-125335000I-249998J0D01*
G01*
X143836498Y-125335000D01*
G75*
G02*
X143586500Y-125085002I0J249998D01*
G01*
X143586500Y-123834998D01*
G75*
G02*
X143836498Y-123585000I249998J0D01*
G01*
X144461502Y-123585000D01*
G75*
G02*
X144711500Y-123834998I0J-249998D01*
G01*
G37*
%TD.AperFunction*%
%TD*%
%TO.P,R2,2*%
%TO.N,Net-(Q1-Pad1)*%
%TA.AperFunction,SMDPad,CuDef*%
G36*
G01*
X145278002Y-129467500D02*
X144027998Y-129467500D01*
G75*
G02*
X143778000Y-129217502I0J249998D01*
G01*
X143778000Y-128592498D01*
G75*
G02*
X144027998Y-128342500I249998J0D01*
G01*
X145278002Y-128342500D01*
G75*
G02*
X145528000Y-128592498I0J-249998D01*
G01*
X145528000Y-129217502D01*
G75*
G02*
X145278002Y-129467500I-249998J0D01*
G01*
G37*
%TD.AperFunction*%
%TO.P,R2,1*%
%TO.N,+24V*%
%TA.AperFunction,SMDPad,CuDef*%
G36*
G01*
X145278002Y-132392500D02*
X144027998Y-132392500D01*
G75*
G02*
X143778000Y-132142502I0J249998D01*
G01*
X143778000Y-131517498D01*
G75*
G02*
X144027998Y-131267500I249998J0D01*
G01*
X145278002Y-131267500D01*
G75*
G02*
X145528000Y-131517498I0J-249998D01*
G01*
X145528000Y-132142502D01*
G75*
G02*
X145278002Y-132392500I-249998J0D01*
G01*
G37*
%TD.AperFunction*%
%TD*%
%TO.P,R1,2*%
%TO.N,GND*%
%TA.AperFunction,SMDPad,CuDef*%
G36*
G01*
X144027998Y-139522500D02*
X145278002Y-139522500D01*
G75*
G02*
X145528000Y-139772498I0J-249998D01*
G01*
X145528000Y-140397502D01*
G75*
G02*
X145278002Y-140647500I-249998J0D01*
G01*
X144027998Y-140647500D01*
G75*
G02*
X143778000Y-140397502I0J249998D01*
G01*
X143778000Y-139772498D01*
G75*
G02*
X144027998Y-139522500I249998J0D01*
G01*
G37*
%TD.AperFunction*%
%TO.P,R1,1*%
%TO.N,Net-(Q2-Pad1)*%
%TA.AperFunction,SMDPad,CuDef*%
G36*
G01*
X144027998Y-136597500D02*
X145278002Y-136597500D01*
G75*
G02*
X145528000Y-136847498I0J-249998D01*
G01*
X145528000Y-137472502D01*
G75*
G02*
X145278002Y-137722500I-249998J0D01*
G01*
X144027998Y-137722500D01*
G75*
G02*
X143778000Y-137472502I0J249998D01*
G01*
X143778000Y-136847498D01*
G75*
G02*
X144027998Y-136597500I249998J0D01*
G01*
G37*
%TD.AperFunction*%
%TD*%
D29*
%TO.P,Q4,3*%
%TO.N,Net-(D10-Pad1)*%
X140049000Y-138110000D03*
%TO.P,Q4,2*%
%TO.N,GND*%
X138049000Y-139060000D03*
%TO.P,Q4,1*%
%TO.N,Net-(Q4-Pad1)*%
X138049000Y-137160000D03*
%TD*%
%TO.P,Q3,3*%
%TO.N,Net-(D10-Pad1)*%
X140049000Y-129855000D03*
%TO.P,Q3,2*%
%TO.N,+24V*%
X138049000Y-130805000D03*
%TO.P,Q3,1*%
%TO.N,Net-(Q3-Pad1)*%
X138049000Y-128905000D03*
%TD*%
%TO.P,Q2,3*%
%TO.N,Net-(D1-Pad2)*%
X151098000Y-138364000D03*
%TO.P,Q2,2*%
%TO.N,GND*%
X149098000Y-139314000D03*
%TO.P,Q2,1*%
%TO.N,Net-(Q2-Pad1)*%
X149098000Y-137414000D03*
%TD*%
%TO.P,Q1,3*%
%TO.N,Net-(D1-Pad2)*%
X151098000Y-129860000D03*
%TO.P,Q1,2*%
%TO.N,+24V*%
X149098000Y-130810000D03*
%TO.P,Q1,1*%
%TO.N,Net-(Q1-Pad1)*%
X149098000Y-128910000D03*
%TD*%
D18*
%TO.P,J2,6*%
%TO.N,GND*%
X150622000Y-84836000D03*
%TO.P,J2,5*%
%TO.N,+5V*%
X150622000Y-82296000D03*
%TO.P,J2,4*%
%TO.N,Net-(A1-Pad23)*%
X150622000Y-79756000D03*
%TO.P,J2,3*%
%TO.N,Net-(A1-Pad24)*%
X150622000Y-77216000D03*
%TO.P,J2,2*%
%TO.N,Net-(A1-Pad5)*%
X150622000Y-74676000D03*
D19*
%TO.P,J2,1*%
%TO.N,Net-(A1-Pad6)*%
X150622000Y-72136000D03*
%TD*%
D30*
%TO.P,J1,3*%
%TO.N,Net-(D10-Pad1)*%
X170260000Y-141859000D03*
%TO.P,J1,4*%
%TO.N,Net-(D1-Pad2)*%
X165260000Y-141859000D03*
%TO.P,J1,2*%
%TO.N,+24V*%
X175260000Y-141859000D03*
D31*
%TO.P,J1,1*%
%TO.N,GND*%
X180260000Y-141859000D03*
%TD*%
D32*
%TO.P,D6,2*%
%TO.N,Net-(D11-Pad2)*%
X189992000Y-135890000D03*
D33*
%TO.P,D6,1*%
%TO.N,Net-(C1-Pad1)*%
X189992000Y-125730000D03*
%TD*%
D34*
%TO.P,D5,2*%
%TO.N,Net-(D10-Pad1)*%
X169164000Y-129286000D03*
D35*
%TO.P,D5,1*%
%TO.N,Net-(D5-Pad1)*%
X166624000Y-129286000D03*
%TD*%
D32*
%TO.P,D4,2*%
%TO.N,GND*%
X129159000Y-146685000D03*
D33*
%TO.P,D4,1*%
%TO.N,Net-(D10-Pad1)*%
X129159000Y-136525000D03*
%TD*%
D32*
%TO.P,D3,2*%
%TO.N,Net-(D10-Pad1)*%
X129286000Y-132080000D03*
D33*
%TO.P,D3,1*%
%TO.N,+24V*%
X129286000Y-121920000D03*
%TD*%
D32*
%TO.P,D2,2*%
%TO.N,GND*%
X157988000Y-146050000D03*
D33*
%TO.P,D2,1*%
%TO.N,Net-(D1-Pad2)*%
X157988000Y-135890000D03*
%TD*%
D32*
%TO.P,D1,2*%
%TO.N,Net-(D1-Pad2)*%
X157988000Y-132080000D03*
D33*
%TO.P,D1,1*%
%TO.N,+24V*%
X157988000Y-121920000D03*
%TD*%
D36*
%TO.P,C3,2*%
%TO.N,GND*%
X180467000Y-107569000D03*
D37*
%TO.P,C3,1*%
%TO.N,Net-(C1-Pad1)*%
X170467000Y-107569000D03*
%TD*%
D38*
%TO.P,C2,2*%
%TO.N,GND*%
X154686000Y-104140000D03*
D24*
%TO.P,C2,1*%
%TO.N,+5V*%
X152686000Y-104140000D03*
%TD*%
D38*
%TO.P,C1,2*%
%TO.N,GND*%
X147923000Y-104140000D03*
D24*
%TO.P,C1,1*%
%TO.N,Net-(C1-Pad1)*%
X145923000Y-104140000D03*
%TD*%
D23*
%TO.P,A1,16*%
%TO.N,Net-(A1-Pad16)*%
X125222000Y-77216000D03*
%TO.P,A1,15*%
%TO.N,Net-(A1-Pad15)*%
X140462000Y-77216000D03*
%TO.P,A1,30*%
%TO.N,Net-(A1-Pad30)*%
X125222000Y-112776000D03*
%TO.P,A1,14*%
%TO.N,Net-(A1-Pad14)*%
X140462000Y-79756000D03*
%TO.P,A1,29*%
%TO.N,GND*%
X125222000Y-110236000D03*
%TO.P,A1,13*%
%TO.N,Net-(A1-Pad13)*%
X140462000Y-82296000D03*
%TO.P,A1,28*%
%TO.N,Net-(A1-Pad28)*%
X125222000Y-107696000D03*
%TO.P,A1,12*%
%TO.N,Net-(A1-Pad12)*%
X140462000Y-84836000D03*
%TO.P,A1,27*%
%TO.N,+5V*%
X125222000Y-105156000D03*
%TO.P,A1,11*%
%TO.N,Net-(A1-Pad11)*%
X140462000Y-87376000D03*
%TO.P,A1,26*%
%TO.N,Net-(A1-Pad26)*%
X125222000Y-102616000D03*
%TO.P,A1,10*%
%TO.N,Net-(A1-Pad10)*%
X140462000Y-89916000D03*
%TO.P,A1,25*%
%TO.N,Net-(A1-Pad25)*%
X125222000Y-100076000D03*
%TO.P,A1,9*%
%TO.N,Net-(A1-Pad9)*%
X140462000Y-92456000D03*
%TO.P,A1,24*%
%TO.N,Net-(A1-Pad24)*%
X125222000Y-97536000D03*
%TO.P,A1,8*%
%TO.N,Net-(A1-Pad8)*%
X140462000Y-94996000D03*
%TO.P,A1,23*%
%TO.N,Net-(A1-Pad23)*%
X125222000Y-94996000D03*
%TO.P,A1,7*%
%TO.N,Net-(A1-Pad7)*%
X140462000Y-97536000D03*
%TO.P,A1,22*%
%TO.N,Net-(A1-Pad22)*%
X125222000Y-92456000D03*
%TO.P,A1,6*%
%TO.N,Net-(A1-Pad6)*%
X140462000Y-100076000D03*
%TO.P,A1,21*%
%TO.N,Net-(A1-Pad21)*%
X125222000Y-89916000D03*
%TO.P,A1,5*%
%TO.N,Net-(A1-Pad5)*%
X140462000Y-102616000D03*
%TO.P,A1,20*%
%TO.N,Net-(A1-Pad20)*%
X125222000Y-87376000D03*
%TO.P,A1,4*%
%TO.N,GND*%
X140462000Y-105156000D03*
%TO.P,A1,19*%
%TO.N,Net-(A1-Pad19)*%
X125222000Y-84836000D03*
%TO.P,A1,3*%
%TO.N,Net-(A1-Pad3)*%
X140462000Y-107696000D03*
%TO.P,A1,18*%
%TO.N,Net-(A1-Pad18)*%
X125222000Y-82296000D03*
%TO.P,A1,2*%
%TO.N,Net-(A1-Pad2)*%
X140462000Y-110236000D03*
%TO.P,A1,17*%
%TO.N,Net-(A1-Pad17)*%
X125222000Y-79756000D03*
D24*
%TO.P,A1,1*%
%TO.N,Net-(A1-Pad1)*%
X140462000Y-112776000D03*
%TD*%
D39*
%TO.N,GND*%
X120396000Y-78994000D03*
X150876000Y-111506000D03*
X153416000Y-117418000D03*
X117856000Y-128016000D03*
%TO.N,Net-(A1-Pad11)*%
X133858000Y-87376000D03*
%TO.N,Net-(A1-Pad10)*%
X131826000Y-89916000D03*
%TO.N,Net-(A1-Pad24)*%
X157734000Y-80772000D03*
%TO.N,Net-(Q2-Pad1)*%
X145542000Y-134366000D03*
X136849000Y-125730000D03*
%TO.N,Net-(Q4-Pad1)*%
X134620000Y-135382000D03*
X133350000Y-125730000D03*
%TD*%
D40*
%TO.N,GND*%
X120523000Y-79121000D02*
X120396000Y-78994000D01*
X120523000Y-80960500D02*
X120523000Y-79121000D01*
X137922000Y-139187000D02*
X138049000Y-139060000D01*
D41*
X157988000Y-146050000D02*
X157988000Y-142970000D01*
D40*
X150236000Y-84450000D02*
X150622000Y-84836000D01*
X147320000Y-84450000D02*
X150236000Y-84450000D01*
X189606000Y-87752000D02*
X189992000Y-88138000D01*
X187198000Y-87752000D02*
X189606000Y-87752000D01*
X151003000Y-111633000D02*
X150876000Y-111506000D01*
D41*
X151003000Y-114300000D02*
X151003000Y-111633000D01*
X151003000Y-114300000D02*
X151003000Y-115005000D01*
X151003000Y-115005000D02*
X153416000Y-117418000D01*
D40*
X146689000Y-140085000D02*
X147828000Y-141224000D01*
X144653000Y-140085000D02*
X146689000Y-140085000D01*
X147828000Y-140584000D02*
X149098000Y-139314000D01*
X147828000Y-141224000D02*
X147828000Y-140584000D01*
X136652000Y-140457000D02*
X138049000Y-139060000D01*
X136652000Y-140970000D02*
X136652000Y-140457000D01*
X135767000Y-140085000D02*
X136652000Y-140970000D01*
X134493000Y-140085000D02*
X135767000Y-140085000D01*
D41*
X129159000Y-143827000D02*
X129286000Y-143700000D01*
X129159000Y-146685000D02*
X129159000Y-143827000D01*
D40*
X117856000Y-126238000D02*
X117856000Y-128016000D01*
X128016000Y-108646000D02*
X126426000Y-110236000D01*
X126426000Y-110236000D02*
X125222000Y-110236000D01*
%TO.N,Net-(A1-Pad13)*%
X137922000Y-82296000D02*
X140462000Y-82296000D01*
X135382000Y-84836000D02*
X137922000Y-82296000D01*
X137414000Y-118364000D02*
X137414000Y-117094000D01*
X135382000Y-115062000D02*
X135382000Y-114046000D01*
X137414000Y-117094000D02*
X135382000Y-115062000D01*
X135382000Y-114046000D02*
X135382000Y-84836000D01*
%TO.N,Net-(A1-Pad12)*%
X138430000Y-84836000D02*
X140462000Y-84836000D01*
X137160000Y-86106000D02*
X138430000Y-84836000D01*
X137414000Y-120904000D02*
X138430000Y-120904000D01*
X138430000Y-120904000D02*
X139192000Y-120142000D01*
X139192000Y-120142000D02*
X139192000Y-116332000D01*
X137160000Y-114300000D02*
X137160000Y-113792000D01*
X139192000Y-116332000D02*
X137160000Y-114300000D01*
X137160000Y-113792000D02*
X137160000Y-86106000D01*
D42*
%TO.N,+5V*%
X153543000Y-114300000D02*
X153543000Y-109347000D01*
X153543000Y-108585000D02*
X152686000Y-107728000D01*
X152686000Y-107728000D02*
X152686000Y-104140000D01*
X153543000Y-109347000D02*
X153543000Y-108585000D01*
D40*
X156464000Y-101600000D02*
X158750000Y-99314000D01*
X154178000Y-101600000D02*
X156464000Y-101600000D01*
X152686000Y-103092000D02*
X154178000Y-101600000D01*
X152686000Y-104140000D02*
X152686000Y-103092000D01*
X159258000Y-85598000D02*
X158750000Y-86106000D01*
X158750000Y-99314000D02*
X158750000Y-86106000D01*
X158750000Y-85852000D02*
X155194000Y-82296000D01*
X158750000Y-86106000D02*
X158750000Y-85852000D01*
X155194000Y-82296000D02*
X150622000Y-82296000D01*
X147574000Y-82296000D02*
X147320000Y-82550000D01*
X150622000Y-82296000D02*
X147574000Y-82296000D01*
X187198000Y-85852000D02*
X186944000Y-85598000D01*
X186944000Y-85598000D02*
X159258000Y-85598000D01*
X187452000Y-85598000D02*
X187198000Y-85852000D01*
X189992000Y-85598000D02*
X187452000Y-85598000D01*
X126426000Y-105156000D02*
X128016000Y-106746000D01*
X125222000Y-105156000D02*
X126426000Y-105156000D01*
%TO.N,Net-(A1-Pad11)*%
X121848000Y-108966000D02*
X121848000Y-115466000D01*
X133858000Y-97536000D02*
X133858000Y-87376000D01*
X127488001Y-103905999D02*
X133858000Y-97536000D01*
X123424001Y-103905999D02*
X127488001Y-103905999D01*
X121848000Y-105482000D02*
X123424001Y-103905999D01*
X121848000Y-108966000D02*
X121848000Y-105482000D01*
%TO.N,Net-(A1-Pad26)*%
X122936000Y-102616000D02*
X120142000Y-105410000D01*
X125222000Y-102616000D02*
X122936000Y-102616000D01*
X120904000Y-117856000D02*
X120142000Y-117094000D01*
X120904000Y-119380000D02*
X120904000Y-117856000D01*
X120142000Y-105410000D02*
X120142000Y-117094000D01*
%TO.N,Net-(A1-Pad10)*%
X122102000Y-100226000D02*
X122102000Y-93726000D01*
X123202001Y-101326001D02*
X127019999Y-101326001D01*
X122102000Y-100226000D02*
X123202001Y-101326001D01*
X131826000Y-96520000D02*
X131826000Y-89916000D01*
X127019999Y-101326001D02*
X131826000Y-96520000D01*
X131826000Y-89916000D02*
X131826000Y-89916000D01*
%TO.N,Net-(A1-Pad24)*%
X130048000Y-94742000D02*
X127254000Y-97536000D01*
X130048000Y-73152000D02*
X130048000Y-94742000D01*
X134366000Y-68834000D02*
X130048000Y-73152000D01*
X154178000Y-68834000D02*
X134366000Y-68834000D01*
X155702000Y-70358000D02*
X154178000Y-68834000D01*
X127254000Y-97536000D02*
X125222000Y-97536000D01*
X155702000Y-76200000D02*
X155702000Y-70358000D01*
X154686000Y-77216000D02*
X155702000Y-76200000D01*
X150622000Y-77216000D02*
X154686000Y-77216000D01*
X189992000Y-83058000D02*
X160020000Y-83058000D01*
X160020000Y-83058000D02*
X157734000Y-80772000D01*
%TO.N,Net-(A1-Pad23)*%
X128524000Y-93472000D02*
X127000000Y-94996000D01*
X128524000Y-72644000D02*
X128524000Y-93472000D01*
X133858000Y-67310000D02*
X128524000Y-72644000D01*
X127000000Y-94996000D02*
X125222000Y-94996000D01*
X157226000Y-69596000D02*
X154940000Y-67310000D01*
X157226000Y-77216000D02*
X157226000Y-69596000D01*
X154940000Y-67310000D02*
X133858000Y-67310000D01*
X154686000Y-79756000D02*
X157226000Y-77216000D01*
X150622000Y-79756000D02*
X154686000Y-79756000D01*
X160528000Y-80518000D02*
X157226000Y-77216000D01*
X189992000Y-80518000D02*
X160528000Y-80518000D01*
%TO.N,Net-(A1-Pad6)*%
X141732000Y-100076000D02*
X140462000Y-100076000D01*
X142240000Y-99568000D02*
X141732000Y-100076000D01*
X142240000Y-76200000D02*
X142240000Y-99568000D01*
X146304000Y-72136000D02*
X142240000Y-76200000D01*
X150622000Y-72136000D02*
X146304000Y-72136000D01*
%TO.N,Net-(A1-Pad5)*%
X146812000Y-74676000D02*
X150622000Y-74676000D01*
X145796000Y-74676000D02*
X146812000Y-74676000D01*
X143510000Y-76962000D02*
X145796000Y-74676000D01*
X143510000Y-100838000D02*
X143510000Y-76962000D01*
X141732000Y-102616000D02*
X143510000Y-100838000D01*
X140462000Y-102616000D02*
X141732000Y-102616000D01*
%TO.N,Net-(A1-Pad19)*%
X121473500Y-84836000D02*
X120523000Y-83885500D01*
X120523000Y-87183500D02*
X120523000Y-85979000D01*
X121666000Y-84836000D02*
X121473500Y-84836000D01*
X120523000Y-85979000D02*
X121666000Y-84836000D01*
X125222000Y-84836000D02*
X121666000Y-84836000D01*
D42*
%TO.N,Net-(C1-Pad1)*%
X148463000Y-114300000D02*
X148463000Y-110363000D01*
X148463000Y-110363000D02*
X145923000Y-107823000D01*
X145923000Y-107823000D02*
X145923000Y-104140000D01*
D41*
X189992000Y-128969000D02*
X189992000Y-125730000D01*
D40*
X181356000Y-125730000D02*
X171704000Y-116078000D01*
X189992000Y-125730000D02*
X181356000Y-125730000D01*
X171704000Y-108806000D02*
X170467000Y-107569000D01*
X171704000Y-116078000D02*
X171704000Y-108806000D01*
X167767000Y-107569000D02*
X170467000Y-107569000D01*
X156210000Y-119126000D02*
X167767000Y-107569000D01*
X148463000Y-116713000D02*
X150876000Y-119126000D01*
X150876000Y-119126000D02*
X156210000Y-119126000D01*
X148463000Y-114300000D02*
X148463000Y-116713000D01*
D42*
%TO.N,Net-(D1-Pad2)*%
X157988000Y-132080000D02*
X157988000Y-133858000D01*
X157988000Y-133858000D02*
X157988000Y-135890000D01*
D41*
X162052000Y-135890000D02*
X160020000Y-133858000D01*
X160020000Y-133858000D02*
X158496000Y-133858000D01*
X162052000Y-140208000D02*
X162052000Y-135890000D01*
X163703000Y-141859000D02*
X162052000Y-140208000D01*
X165260000Y-141859000D02*
X163703000Y-141859000D01*
D40*
X162560000Y-130560000D02*
X162560000Y-131318000D01*
X165260000Y-134018000D02*
X165260000Y-141859000D01*
X162560000Y-131318000D02*
X165260000Y-134018000D01*
X154178000Y-133858000D02*
X154178000Y-136774000D01*
X154178000Y-136774000D02*
X152588000Y-138364000D01*
D41*
X157988000Y-129095000D02*
X157988000Y-132080000D01*
X157988000Y-138970000D02*
X157988000Y-135890000D01*
D40*
X154178000Y-133858000D02*
X152908000Y-132588000D01*
X157988000Y-133858000D02*
X154178000Y-133858000D01*
X152908000Y-131670000D02*
X151098000Y-129860000D01*
X152908000Y-132588000D02*
X152908000Y-131670000D01*
X151098000Y-138364000D02*
X152588000Y-138364000D01*
X151098000Y-138364000D02*
X152080000Y-138364000D01*
X152908000Y-139192000D02*
X152908000Y-141224000D01*
X152080000Y-138364000D02*
X152908000Y-139192000D01*
X151098000Y-124877000D02*
X151130000Y-124845000D01*
X151098000Y-129860000D02*
X151098000Y-124877000D01*
%TO.N,+24V*%
X157988000Y-121920000D02*
X157988000Y-121285000D01*
D41*
X129286000Y-121920000D02*
X129286000Y-125730000D01*
D40*
X129159000Y-125730000D02*
X131699000Y-128270000D01*
X131699000Y-128270000D02*
X131699000Y-130810000D01*
X132399500Y-131510500D02*
X134493000Y-131510500D01*
X131699000Y-130810000D02*
X132399500Y-131510500D01*
D42*
X175260000Y-141859000D02*
X175260000Y-130556000D01*
X166624000Y-121920000D02*
X166116000Y-121920000D01*
X166116000Y-121920000D02*
X157988000Y-121920000D01*
X175260000Y-130556000D02*
X166624000Y-121920000D01*
D41*
X157988000Y-125095000D02*
X157988000Y-121920000D01*
D40*
X135570500Y-132588000D02*
X134493000Y-131510500D01*
X136398000Y-132588000D02*
X135570500Y-132588000D01*
X134493000Y-131510500D02*
X135193500Y-130810000D01*
X138044000Y-130810000D02*
X138049000Y-130805000D01*
X135193500Y-130810000D02*
X138044000Y-130810000D01*
X143546544Y-123134990D02*
X142494000Y-124187534D01*
X154995010Y-123134990D02*
X143546544Y-123134990D01*
X156210000Y-121920000D02*
X154995010Y-123134990D01*
X157988000Y-121920000D02*
X156210000Y-121920000D01*
X149098000Y-131318000D02*
X147828000Y-132588000D01*
X149098000Y-130810000D02*
X149098000Y-131318000D01*
X145411000Y-132588000D02*
X144653000Y-131830000D01*
X147828000Y-132588000D02*
X145411000Y-132588000D01*
X142494000Y-128524000D02*
X142494000Y-128655000D01*
X142494000Y-124187534D02*
X142494000Y-128524000D01*
X121920000Y-136144000D02*
X121158000Y-136144000D01*
X125730000Y-132334000D02*
X121920000Y-136144000D01*
X120523000Y-90805000D02*
X120523000Y-90108500D01*
X119380000Y-91948000D02*
X120523000Y-90805000D01*
X119380000Y-120650000D02*
X119380000Y-91948000D01*
X119888000Y-121158000D02*
X119380000Y-120650000D01*
X128524000Y-121158000D02*
X119888000Y-121158000D01*
X129286000Y-121920000D02*
X128524000Y-121158000D01*
X129032000Y-121920000D02*
X125730000Y-125222000D01*
X129286000Y-121920000D02*
X129032000Y-121920000D01*
X125730000Y-125222000D02*
X125730000Y-132334000D01*
X142494000Y-129671000D02*
X142494000Y-129286000D01*
X144653000Y-131830000D02*
X142494000Y-129671000D01*
X142494000Y-129286000D02*
X142494000Y-128524000D01*
%TO.N,Net-(D5-Pad1)*%
X166624000Y-129286000D02*
X166624000Y-128524000D01*
X165735000Y-127635000D02*
X162560000Y-127635000D01*
X166624000Y-128524000D02*
X165735000Y-127635000D01*
%TO.N,Net-(Q1-Pad1)*%
X150197999Y-130009999D02*
X149098000Y-128910000D01*
X150197999Y-132417999D02*
X150197999Y-130009999D01*
X150368000Y-132588000D02*
X150197999Y-132417999D01*
X144658000Y-128910000D02*
X144653000Y-128905000D01*
X149098000Y-128910000D02*
X144658000Y-128910000D01*
X144653000Y-124964000D02*
X144149000Y-124460000D01*
X144653000Y-128905000D02*
X144653000Y-124964000D01*
%TO.N,Net-(Q2-Pad1)*%
X145923000Y-137414000D02*
X145669000Y-137160000D01*
X149098000Y-137414000D02*
X144907000Y-137414000D01*
X145542000Y-134366000D02*
X145542000Y-137033000D01*
X145542000Y-137033000D02*
X145669000Y-137160000D01*
X149998001Y-138314001D02*
X149098000Y-137414000D01*
X134489000Y-118364000D02*
X135128000Y-118364000D01*
X135128000Y-118364000D02*
X135890000Y-119126000D01*
X135890000Y-124714000D02*
X135861500Y-124742500D01*
X135890000Y-119126000D02*
X135890000Y-124714000D01*
X135861500Y-124742500D02*
X136849000Y-125730000D01*
X149998001Y-140854001D02*
X149998001Y-138314001D01*
X150368000Y-141224000D02*
X149998001Y-140854001D01*
%TO.N,Net-(Q3-Pad1)*%
X134812500Y-128905000D02*
X134493000Y-128585500D01*
X138049000Y-128905000D02*
X134812500Y-128905000D01*
X138049000Y-128905000D02*
X138049000Y-124460000D01*
X138049000Y-124460000D02*
X140589000Y-121920000D01*
X138949001Y-129805001D02*
X138049000Y-128905000D01*
X138949001Y-131565001D02*
X138949001Y-129805001D01*
X138938000Y-131576002D02*
X138949001Y-131565001D01*
X138938000Y-132588000D02*
X138938000Y-131576002D01*
X151257000Y-121920000D02*
X140589000Y-121920000D01*
%TO.N,Net-(Q4-Pad1)*%
X138049000Y-137160000D02*
X134493000Y-137160000D01*
X134493000Y-137160000D02*
X134493000Y-135509000D01*
X134493000Y-135509000D02*
X134620000Y-135382000D01*
X138949001Y-140600001D02*
X139192000Y-140843000D01*
X138949001Y-138060001D02*
X138949001Y-140600001D01*
X138049000Y-137160000D02*
X138949001Y-138060001D01*
X133350000Y-122043000D02*
X134489000Y-120904000D01*
X133350000Y-125730000D02*
X133350000Y-122043000D01*
D41*
%TO.N,Net-(D10-Pad1)*%
X163783000Y-148336000D02*
X170260000Y-141859000D01*
X132334000Y-142748000D02*
X137922000Y-148336000D01*
X132080000Y-135890000D02*
X132080000Y-142494000D01*
X132080000Y-142494000D02*
X132334000Y-142748000D01*
X130302000Y-134112000D02*
X132080000Y-135890000D01*
X129286000Y-134112000D02*
X130302000Y-134112000D01*
D42*
X129286000Y-136652000D02*
X129286000Y-134112000D01*
D41*
X163783000Y-148336000D02*
X147574000Y-148336000D01*
X147574000Y-148336000D02*
X137922000Y-148336000D01*
D40*
X140049000Y-134080000D02*
X129254000Y-134080000D01*
D42*
X129286000Y-133985000D02*
X129286000Y-132080000D01*
D40*
X140049000Y-134080000D02*
X140049000Y-138110000D01*
X139954000Y-129760000D02*
X140049000Y-129855000D01*
X141224000Y-128680000D02*
X140049000Y-129855000D01*
X141224000Y-124460000D02*
X141224000Y-128680000D01*
X170260000Y-130382000D02*
X169164000Y-129286000D01*
X170260000Y-141859000D02*
X170260000Y-130382000D01*
D41*
X129286000Y-129032000D02*
X129286000Y-131953000D01*
D40*
X141732000Y-139954000D02*
X141732000Y-140970000D01*
X140049000Y-134017000D02*
X141478000Y-132588000D01*
X140049000Y-134080000D02*
X140049000Y-134017000D01*
X141478000Y-131284000D02*
X140049000Y-129855000D01*
X141478000Y-132588000D02*
X141478000Y-131284000D01*
D41*
X129159000Y-139573000D02*
X129286000Y-139700000D01*
X129159000Y-136525000D02*
X129159000Y-139573000D01*
D40*
X140049000Y-138271000D02*
X141732000Y-139954000D01*
X140049000Y-138110000D02*
X140049000Y-138271000D01*
%TO.N,Net-(D11-Pad2)*%
X183257000Y-129155000D02*
X189992000Y-135890000D01*
X181733000Y-127631000D02*
X183257000Y-129155000D01*
X175260000Y-127631000D02*
X181733000Y-127631000D01*
D41*
X189992000Y-132969000D02*
X189992000Y-135890000D01*
D40*
%TO.N,Net-(J4-Pad2)*%
X121158000Y-123952000D02*
X121158000Y-131144000D01*
%TO.N,Net-(Q9-Pad2)*%
X122428000Y-122702000D02*
X121646000Y-121920000D01*
X122428000Y-123952000D02*
X122428000Y-122702000D01*
X120396000Y-121920000D02*
X118618000Y-121920000D01*
X121646000Y-121920000D02*
X120396000Y-121920000D01*
X117979000Y-121281000D02*
X117979000Y-119380000D01*
X118618000Y-121920000D02*
X117979000Y-121281000D01*
X117856000Y-122682000D02*
X118618000Y-121920000D01*
X117856000Y-123313000D02*
X117856000Y-122682000D01*
%TD*%
M02*
